# Blender v3.1.2 OBJ File: ''
# www.blender.org
mtllib Pared.mtl
o Cube
v 0.211073 1.000000 -1.000000
v 0.211073 -1.000000 -1.000000
v 0.211073 1.000000 1.000000
v 0.211073 -1.000000 1.000000
v -0.211073 1.000000 -1.000000
v -0.211073 -1.000000 -1.000000
v -0.211073 1.000000 1.000000
v -0.211073 -1.000000 1.000000
v 0.211073 -1.000000 -4.986762
v -0.211073 -1.000000 -4.986762
v 0.211073 1.000000 -4.986762
v -0.211073 1.000000 -4.986762
v 0.211073 -1.000000 -6.962809
v -0.211073 -1.000000 -6.962809
v 0.211073 1.000000 -6.962809
v -0.211073 1.000000 -6.962809
v 0.211073 5.021430 1.000000
v -0.211073 5.021430 1.000000
v 0.211073 5.021430 -1.000000
v -0.211073 5.021430 -1.000000
v -0.211073 5.021430 -4.986762
v 0.211073 5.021430 -4.986762
v -0.211073 5.021430 -6.962809
v 0.211073 5.021430 -6.962809
v 0.211073 7.413487 1.000000
v -0.211073 7.413487 1.000000
v 0.211073 7.413487 -1.000000
v -0.211073 7.413487 -1.000000
v -0.211073 7.413487 -4.986762
v 0.211073 7.413487 -4.986762
v -0.211073 7.413487 -6.962809
v 0.211073 7.413487 -6.962809
v -0.211073 5.021430 -4.988513
v 0.211073 5.021430 -4.988513
v -0.211073 7.413487 -4.988513
v 0.211073 7.413487 -4.988513
vt 0.625000 1.000000
vt 0.625000 0.750000
vt 0.625000 0.750000
vt 0.625000 1.000000
vt 0.375000 0.750000
vt 0.375000 1.000000
vt 0.375000 0.000000
vt 0.625000 0.000000
vt 0.625000 0.250000
vt 0.375000 0.250000
vt 0.125000 0.500000
vt 0.375000 0.500000
vt 0.125000 0.750000
vt 0.625000 0.500000
vt 0.875000 0.500000
vt 0.625000 0.500000
vt 0.875000 0.500000
vt 0.875000 0.500000
vt 0.625000 0.500000
vt 0.375000 0.500000
vt 0.625000 0.250000
vt 0.375000 0.250000
vt 0.125000 0.500000
vt 0.375000 0.250000
vt 0.625000 0.250000
vt 0.625000 0.500000
vt 0.375000 0.500000
vt 0.125000 0.500000
vt 0.625000 0.500000
vt 0.625000 0.750000
vt 0.875000 0.500000
vt 0.625000 0.500000
vt 0.625000 0.500000
vt 0.875000 0.500000
vt 0.625000 0.500000
vt 0.625000 0.000000
vt 0.625000 0.250000
vt 0.625000 0.250000
vt 0.625000 0.250000
vt 0.875000 0.500000
vt 0.875000 0.750000
vt 0.875000 0.500000
vt 0.625000 0.500000
vt 0.625000 0.500000
vt 0.875000 0.500000
vt 0.625000 0.000000
vt 0.625000 0.250000
vt 0.625000 1.000000
vt 0.625000 0.250000
vt 0.625000 0.250000
vt 0.875000 0.500000
vt 0.625000 0.500000
vt 0.625000 0.250000
vt 0.625000 0.250000
vn 0.0000 0.0000 1.0000
vn -1.0000 0.0000 0.0000
vn 0.0000 -1.0000 0.0000
vn 1.0000 0.0000 0.0000
vn 0.0000 1.0000 0.0000
vn 0.0000 0.0000 -1.0000
usemtl Material
s off
f 7/1/1 3/2/1 17/3/1 18/4/1
f 4/5/1 3/2/1 7/1/1 8/6/1
f 8/7/2 7/8/2 5/9/2 6/10/2
f 6/11/3 2/12/3 4/5/3 8/13/3
f 2/12/4 1/14/4 3/2/4 4/5/4
f 5/15/5 1/14/5 11/16/5 12/17/5
f 1/14/6 5/15/6 20/18/6 19/19/6
f 1/14/4 2/12/4 9/20/4 11/16/4
f 6/10/2 5/9/2 12/21/2 10/22/2
f 2/12/3 6/11/3 10/23/3 9/20/3
f 14/24/6 16/25/6 15/26/6 13/27/6
f 11/16/4 9/20/4 13/27/4 15/26/4
f 10/22/2 12/21/2 16/25/2 14/24/2
f 9/20/3 10/23/3 14/28/3 13/27/3
f 17/3/4 19/19/4 27/29/4 25/30/4
f 19/19/3 20/18/3 33/31/3 34/32/3
f 12/17/1 11/16/1 22/33/1 21/34/1
f 11/16/4 15/26/4 24/35/4 22/33/4
f 5/9/2 7/8/2 18/36/2 20/37/2
f 3/2/4 1/14/4 19/19/4 17/3/4
f 16/25/2 12/21/2 21/38/2 23/39/2
f 15/26/6 16/25/6 23/39/6 24/35/6
f 27/29/5 28/40/5 26/41/5 25/30/5
f 29/42/5 30/43/5 32/44/5 31/45/5
f 22/33/4 24/35/4 32/44/4 30/43/4
f 21/34/1 22/33/1 30/43/1 29/42/1
f 20/37/2 18/36/2 26/46/2 28/47/2
f 18/4/1 17/3/1 25/30/1 26/48/1
f 23/39/2 21/38/2 29/49/2 31/50/2
f 24/35/6 23/39/6 31/50/6 32/44/6
f 34/32/6 33/31/6 35/51/6 36/52/6
f 27/29/4 19/19/4 34/32/4 36/52/4
f 28/40/5 27/29/5 36/52/5 35/51/5
f 20/37/2 28/47/2 35/53/2 33/54/2
